<?xml version="1.0" encoding="UTF-8"?>
<svg width="125px" height="125px" viewBox="0 0 125 125" version="1.1" xmlns="http://www.w3.org/2000/svg" xmlns:xlink="http://www.w3.org/1999/xlink">
    <title>12视频</title>
    <defs>
        <linearGradient x1="44.0988019%" y1="86.8386574%" x2="128.792906%" y2="-43.8247111%" id="linearGradient-1">
            <stop stop-color="#5073E5" offset="0%"></stop>
            <stop stop-color="#5E7CE0" offset="100%"></stop>
        </linearGradient>
    </defs>
    <g id="组件" stroke="none" stroke-width="1" fill="none" fill-rule="evenodd">
        <g id="视频" transform="translate(31, 31)">
            <rect id="矩形" fill="url(#linearGradient-1)" fill-rule="nonzero" opacity="0.204287574" x="0" y="0" width="63" height="63" rx="6"></rect>
            <rect id="矩形" fill="#5677E2" x="2" y="19" width="59" height="25" rx="4"></rect>
            <g id="rongqi" transform="translate(10, 24)" fill="#FFFFFF">
                <path d="M11,0 L1,0 C0.700000005,0 0.5,0.100000005 0.3,0.3 C0.100000005,0.5 0,0.700000005 0,1 L0,3 C0,3.6 0.400000005,4 1,4 C1.60000001,4 2,3.5 2,3 L2,2 L5,2 L5,12 L4,12 C3.5,12 3,12.4 3,13 C3,13.6 3.40000001,14 4,14 L8,14 C8.5,14 9,13.6 9,13 C9,12.4 8.6,12 8,12 L7,12 L7,2 L10,2 L10,3 C10,3.6 10.4,4 11,4 C11.6,4 12,3.5 12,3 L12,1 C12,0.700000005 11.8999999,0.5 11.7,0.3 C11.5,0.100000005 11.3,0 11,0 Z" id="路径" fill-rule="nonzero"></path>
                <rect id="矩形" opacity="0.6" x="17" y="5" width="24" height="3" rx="1"></rect>
            </g>
        </g>
    </g>
</svg>